<svg width="108" height="31" viewBox="0 0 108 31" fill="none" xmlns="http://www.w3.org/2000/svg">
<path d="M37.3335 12.576C37.1255 11.248 36.6615 10.24 35.9415 9.552C35.2215 8.864 34.3015 8.528 33.1815 8.544C32.4935 8.544 31.8855 8.736 31.3575 9.12C30.8455 9.504 30.5895 10 30.5895 10.608C30.5895 11.344 30.9095 11.952 31.5495 12.432C32.1895 12.912 33.1655 13.424 34.4775 13.968C35.0855 14.208 35.7095 14.488 36.3495 14.808C36.9895 15.128 37.5815 15.512 38.1255 15.96C38.6695 16.392 39.1095 16.904 39.4455 17.496C39.7815 18.072 39.9495 18.752 39.9495 19.536C39.9495 20.48 39.6935 21.32 39.1815 22.056C38.6695 22.792 37.9495 23.368 37.0215 23.784C36.1095 24.184 35.0375 24.384 33.8055 24.384C33.1655 24.384 32.4695 24.28 31.7175 24.072C30.9815 23.88 30.2855 23.592 29.6295 23.208L29.7015 24.216H27.8535V18.6H29.4375C29.6615 19.944 30.1735 20.96 30.9735 21.648C31.7895 22.32 32.7575 22.656 33.8775 22.656C34.7255 22.656 35.4135 22.432 35.9415 21.984C36.4855 21.536 36.7575 21.008 36.7575 20.4C36.7575 19.84 36.5575 19.376 36.1575 19.008C35.7735 18.64 35.2855 18.328 34.6935 18.072C34.1175 17.816 33.5255 17.568 32.9175 17.328C31.8935 16.912 30.9655 16.448 30.1335 15.936C29.3175 15.408 28.6695 14.784 28.1895 14.064C27.7095 13.328 27.4695 12.44 27.4695 11.4C27.4695 10.904 27.5655 10.392 27.7575 9.864C27.9495 9.32 28.2615 8.824 28.6935 8.376C29.1255 7.912 29.7015 7.536 30.4215 7.248C31.1415 6.96 32.0295 6.816 33.0855 6.816C33.7255 6.816 34.4215 6.912 35.1735 7.104C35.9415 7.296 36.5975 7.584 37.1415 7.968L37.0455 6.984H38.9175V12.576H37.3335ZM48.8001 22.44C49.4721 22.44 49.8801 22.248 50.0241 21.864C50.1681 21.464 50.2401 20.944 50.2401 20.304L50.2161 16.896C50.2161 14.848 49.5681 13.824 48.2721 13.824C47.8721 13.824 47.4721 13.912 47.0721 14.088C46.6881 14.264 46.3601 14.472 46.0881 14.712V20.136C46.0881 20.36 46.0801 20.68 46.0641 21.096C46.0481 21.496 46.0241 21.88 45.9921 22.248C46.2641 22.216 46.5521 22.2 46.8561 22.2C47.1601 22.184 47.3921 22.176 47.5521 22.176V24H41.2641V22.44C41.9361 22.44 42.3361 22.248 42.4641 21.864C42.6081 21.464 42.6801 20.944 42.6801 20.304V10.44C42.6801 10.152 42.6881 9.824 42.7041 9.456C42.7201 9.072 42.7441 8.704 42.7761 8.352C42.5201 8.368 42.2161 8.384 41.8641 8.4C41.5281 8.4 41.2721 8.408 41.0961 8.424V6.6C42.2161 6.6 43.0721 6.52 43.6641 6.36C44.2561 6.2 44.6321 6.04 44.7921 5.88H46.0881V12.96C46.4081 12.704 46.7761 12.48 47.1921 12.288C47.6081 12.08 48.0321 11.92 48.4641 11.808C48.8961 11.68 49.2721 11.616 49.5921 11.616C51.0641 11.616 52.1041 12.04 52.7121 12.888C53.3201 13.72 53.6321 15.064 53.6481 16.92V20.136C53.6481 20.36 53.6401 20.68 53.6241 21.096C53.6081 21.496 53.5841 21.88 53.5521 22.248C53.8081 22.216 54.0881 22.2 54.3921 22.2C54.6961 22.184 54.9361 22.176 55.1121 22.176V24H48.8001V22.44ZM62.4343 24.384C61.2823 24.384 60.2423 24.136 59.3143 23.64C58.3863 23.144 57.6503 22.44 57.1063 21.528C56.5783 20.6 56.3143 19.512 56.3143 18.264C56.3143 16.936 56.5863 15.776 57.1303 14.784C57.6903 13.776 58.4263 13 59.3383 12.456C60.2663 11.896 61.2743 11.616 62.3623 11.616C63.5143 11.616 64.5463 11.864 65.4583 12.36C66.3703 12.856 67.0903 13.568 67.6183 14.496C68.1463 15.408 68.4103 16.504 68.4103 17.784C68.4103 19.128 68.1543 20.296 67.6423 21.288C67.1303 22.28 66.4263 23.048 65.5303 23.592C64.6343 24.12 63.6023 24.384 62.4343 24.384ZM62.5303 22.68C63.1703 22.664 63.6503 22.44 63.9703 22.008C64.3063 21.576 64.5383 21.032 64.6663 20.376C64.7943 19.72 64.8583 19.056 64.8583 18.384C64.8583 17.792 64.8103 17.192 64.7143 16.584C64.6343 15.976 64.4983 15.424 64.3063 14.928C64.1143 14.432 63.8503 14.032 63.5143 13.728C63.1943 13.424 62.7943 13.28 62.3143 13.296C61.6903 13.312 61.1943 13.536 60.8263 13.968C60.4743 14.4 60.2183 14.944 60.0583 15.6C59.9143 16.24 59.8423 16.912 59.8423 17.616C59.8423 18.432 59.9303 19.232 60.1063 20.016C60.2823 20.8 60.5623 21.448 60.9463 21.96C61.3463 22.456 61.8743 22.696 62.5303 22.68ZM69.9081 30.12V28.56C70.5801 28.56 70.9881 28.36 71.1321 27.96C71.2761 27.576 71.3481 27.064 71.3481 26.424V16.272C71.3481 15.984 71.3561 15.664 71.3721 15.312C71.3881 14.944 71.4121 14.584 71.4441 14.232C71.1881 14.248 70.8841 14.264 70.5321 14.28C70.1801 14.28 69.9161 14.288 69.7401 14.304V12.48C70.8601 12.48 71.7161 12.4 72.3081 12.24C72.9001 12.08 73.2761 11.92 73.4361 11.76H74.6121C74.6441 11.92 74.6681 12.12 74.6841 12.36C74.7001 12.584 74.7161 12.768 74.7321 12.912C75.2921 12.432 75.8441 12.096 76.3881 11.904C76.9481 11.712 77.4761 11.616 77.9721 11.616C78.9321 11.616 79.7721 11.864 80.4921 12.36C81.2281 12.856 81.7961 13.56 82.1961 14.472C82.6121 15.384 82.8201 16.456 82.8201 17.688C82.8201 18.968 82.5721 20.12 82.0761 21.144C81.5801 22.152 80.8841 22.944 79.9881 23.52C79.1081 24.096 78.0681 24.384 76.8681 24.384C76.4361 24.384 76.0441 24.336 75.6921 24.24C75.3561 24.16 75.0361 24.064 74.7321 23.952V26.256C74.7321 26.48 74.7241 26.792 74.7081 27.192C74.7081 27.608 74.6921 28 74.6601 28.368C74.9161 28.336 75.1961 28.312 75.5001 28.296C75.8041 28.296 76.0361 28.296 76.1961 28.296V30.12H69.9081ZM76.4841 22.584C77.2201 22.568 77.7881 22.352 78.1881 21.936C78.6041 21.504 78.8921 20.944 79.0521 20.256C79.2121 19.568 79.2921 18.832 79.2921 18.048C79.2921 17.312 79.2041 16.616 79.0281 15.96C78.8521 15.304 78.5721 14.776 78.1881 14.376C77.8041 13.96 77.3001 13.76 76.6761 13.776C76.2761 13.792 75.9081 13.896 75.5721 14.088C75.2361 14.264 74.9561 14.512 74.7321 14.832V22.152C74.9081 22.264 75.1561 22.368 75.4761 22.464C75.7961 22.56 76.1321 22.6 76.4841 22.584Z" fill="black"/>
<path d="M86.4101 24.384C85.8821 24.384 85.4501 24.2 85.1141 23.832C84.7941 23.464 84.6341 23.024 84.6341 22.512C84.6341 22 84.8101 21.56 85.1621 21.192C85.5141 20.824 85.9221 20.64 86.3861 20.64C86.8821 20.64 87.2901 20.824 87.6101 21.192C87.9461 21.56 88.1141 22 88.1141 22.512C88.1141 23.024 87.9541 23.464 87.6341 23.832C87.3301 24.2 86.9221 24.384 86.4101 24.384ZM90.1637 22.44C90.8197 22.44 91.2197 22.248 91.3637 21.864C91.5077 21.464 91.5797 20.944 91.5797 20.304V16.32C91.5797 16.032 91.5877 15.704 91.6037 15.336C91.6197 14.952 91.6437 14.584 91.6757 14.232C91.4197 14.248 91.1157 14.264 90.7637 14.28C90.4277 14.28 90.1717 14.288 89.9957 14.304V12.48C91.0997 12.48 91.9477 12.4 92.5397 12.24C93.1477 12.08 93.5317 11.92 93.6917 11.76H94.9877V20.136C94.9877 20.36 94.9797 20.68 94.9637 21.096C94.9477 21.496 94.9237 21.88 94.8917 22.248C95.1477 22.216 95.4277 22.2 95.7317 22.2C96.0517 22.184 96.2917 22.176 96.4517 22.176V24H90.1637V22.44ZM93.1637 9.864C92.6197 9.864 92.1717 9.672 91.8197 9.288C91.4677 8.904 91.2917 8.44 91.2917 7.896C91.2917 7.352 91.4757 6.888 91.8437 6.504C92.2117 6.12 92.6437 5.928 93.1397 5.928C93.6517 5.928 94.0757 6.12 94.4117 6.504C94.7637 6.888 94.9397 7.352 94.9397 7.896C94.9397 8.44 94.7797 8.904 94.4597 9.288C94.1397 9.672 93.7077 9.864 93.1637 9.864ZM102.674 24.384C102.194 24.384 101.73 24.328 101.282 24.216C100.85 24.104 100.45 23.896 100.082 23.592C99.7295 23.272 99.4495 22.808 99.2415 22.2C99.0335 21.592 98.9295 20.784 98.9295 19.776L98.9775 13.992H97.3455V12C97.8415 11.984 98.3215 11.816 98.7855 11.496C99.2495 11.176 99.6415 10.76 99.9615 10.248C100.298 9.736 100.522 9.2 100.634 8.64H102.41L102.386 12H105.434V13.848L102.386 13.92L102.362 19.824C102.362 20.192 102.394 20.56 102.458 20.928C102.538 21.28 102.682 21.576 102.89 21.816C103.098 22.04 103.402 22.152 103.802 22.152C104.026 22.152 104.33 22.072 104.714 21.912C105.114 21.752 105.538 21.352 105.986 20.712L107.138 21.792C106.706 22.432 106.258 22.928 105.794 23.28C105.33 23.632 104.882 23.888 104.45 24.048C104.034 24.208 103.666 24.304 103.346 24.336C103.026 24.368 102.802 24.384 102.674 24.384Z" fill="#D4A373"/>
<path d="M17.1875 10.8125V9.25C17.1875 5.80371 14.3837 3 10.9375 3C7.49121 3 4.6875 5.80371 4.6875 9.25V10.8125H0V24.0938C0 26.2511 1.74888 28 3.90625 28H17.9688C20.1261 28 21.875 26.2511 21.875 24.0938V10.8125H17.1875ZM7.8125 9.25C7.8125 7.52686 9.21436 6.125 10.9375 6.125C12.6606 6.125 14.0625 7.52686 14.0625 9.25V10.8125H7.8125V9.25ZM15.625 15.1094C14.9778 15.1094 14.4531 14.5847 14.4531 13.9375C14.4531 13.2903 14.9778 12.7656 15.625 12.7656C16.2722 12.7656 16.7969 13.2903 16.7969 13.9375C16.7969 14.5847 16.2722 15.1094 15.625 15.1094ZM6.25 15.1094C5.60278 15.1094 5.07812 14.5847 5.07812 13.9375C5.07812 13.2903 5.60278 12.7656 6.25 12.7656C6.89722 12.7656 7.42188 13.2903 7.42188 13.9375C7.42188 14.5847 6.89722 15.1094 6.25 15.1094Z" fill="black"/>
</svg>
